PathFileType	4	(X/Y/Z)	s09c0203.trc
DataRate	CameraRate	NumFrames	NumMarkers	Units	OrigDataRate	OrigDataStartFrame	OrigNumFrames
200	200	4	50	mm	200	1000	2000
Frame#	Time	racr			lacr			c7			jug			rlel			rdr			llel			ldr			s2			lic			ric			lasi			rasi			rpsi			lpsi			rgt			lgt			rth1			rth2			rth3			rth4			rlfc			rmfc			rsh1			rsh2			rsh3			rsh4			rlmal			rmmal			rcal			rtoe			rmt5			lth1			lth2			lth4			lth3			llfc			lmfc			llmal			lmmal			lcal			lmt5			lsh1			lsh2			lsh3			lsh4			ltoe			SBIKE			LBIKE			RBIKE			
		X1	Y1	Z1	X2	Y2	Z2	X3	Y3	Z3	X4	Y4	Z4	X5	Y5	Z5	X6	Y6	Z6	X7	Y7	Z7	X8	Y8	Z8	X9	Y9	Z9	X10	Y10	Z10	X11	Y11	Z11	X12	Y12	Z12	X13	Y13	Z13	X14	Y14	Z14	X15	Y15	Z15	X16	Y16	Z16	X17	Y17	Z17	X18	Y18	Z18	X19	Y19	Z19	X20	Y20	Z20	X21	Y21	Z21	X22	Y22	Z22	X23	Y23	Z23	X24	Y24	Z24	X25	Y25	Z25	X26	Y26	Z26	X27	Y27	Z27	X28	Y28	Z28	X29	Y29	Z29	X30	Y30	Z30	X31	Y31	Z31	X32	Y32	Z32	X33	Y33	Z33	X34	Y34	Z34	X35	Y35	Z35	X36	Y36	Z36	X37	Y37	Z37	X38	Y38	Z38	X39	Y39	Z39	X40	Y40	Z40	X41	Y41	Z41	X42	Y42	Z42	X43	Y43	Z43	X44	Y44	Z44	X45	Y45	Z45	X46	Y46	Z46	X47	Y47	Z47	X48	Y48	Z48	X49	Y49	Z49	X50	Y50	Z50	
1000	5.0000	511.638047	1256.135877	-70.947034	506.349256	1203.915430	-414.941873	489.337087	1308.634142	-251.266632	463.123388	1178.245204	-237.138248	481.912490	1029.119007	51.903837	677.588407	908.662323	-31.480178	426.644989	949.553409	-517.422931	660.900380	902.281638	-432.905419	4.138614	1112.540665	-210.054323	128.663413	1128.423247	-367.884485	144.948793	1114.986501	-60.960280	181.792507	1082.287684	-343.013282	193.326022	1070.133429	-89.254718	33.894883	1140.616802	-149.720262	27.994792	1152.799935	-256.849315	126.627451	960.248268	-35.090351	126.620262	1019.892211	-403.716364	201.274552	840.795981	-40.873959	261.235256	777.068055	-50.563022	275.386467	690.421852	-65.106743	289.211040	791.630054	-70.588146	310.625455	604.872057	-97.070663	291.901153	583.001688	-192.371451	278.875610	507.079063	-63.754954	296.854170	419.969501	-77.155865	268.757012	336.978470	-77.526566	322.164182	422.432879	-108.227658	258.010632	232.350755	-76.530484	259.367182	244.204115	-152.561593	185.913058	196.806339	-110.745930	450.369077	186.979871	-132.298103	371.248204	168.787234	-62.003234	257.393318	961.375321	-401.387989	340.490166	950.334344	-388.051333	352.338864	979.705746	-364.970880	413.062387	895.471233	-386.606345	481.120885	822.244366	-367.219484	481.842161	797.149118	-268.111369	194.672425	602.190405	-404.518279	205.063002	597.226720	-330.031786	110.585433	605.514543	-366.307372	228.343647	474.861472	-428.355484	409.415140	760.862009	-395.746452	353.264194	693.780962	-391.786570	269.879987	663.584603	-398.938568	367.633954	674.024867	-361.819615	311.811828	440.259345	-360.535337	-64.033678	851.478624	-237.920507	21.207518	85.025497	-442.136903	21.183902	84.050125	-43.738804	
1001	5.0050	512.775494	1255.680416	-72.642005	503.876804	1204.397124	-417.735614	488.496256	1308.812079	-253.500369	463.115372	1178.283671	-239.189554	483.033583	1029.415066	51.656336	678.228101	908.717570	-31.607621	426.392036	948.257998	-518.082872	660.822700	902.246943	-432.626680	5.615971	1112.320624	-206.813990	127.209538	1129.617757	-366.332038	147.087413	1114.070454	-60.024281	180.922071	1083.579978	-342.408139	194.561759	1068.962441	-89.188111	34.476311	1140.635591	-147.192476	27.775128	1153.262117	-253.673884	127.562478	959.371639	-33.816022	125.815494	1023.132074	-402.980358	199.470082	839.931548	-40.343035	258.210355	775.134896	-50.296039	270.767440	688.107564	-64.560437	286.277472	789.141127	-70.629940	304.357225	601.983665	-97.477185	284.597476	580.181150	-192.891054	272.362092	504.956900	-64.032581	289.913161	417.837523	-77.428450	261.450076	334.824394	-77.496885	314.454256	419.749977	-108.667426	250.143442	230.421938	-76.464349	251.738272	241.803016	-152.412427	177.540362	196.269449	-110.644892	441.676048	180.444508	-132.288850	362.243799	164.093260	-61.984924	257.728848	967.970416	-400.569534	341.165198	958.393815	-386.247915	351.831100	986.707841	-361.955466	414.671133	905.016937	-386.347432	484.220478	832.180880	-367.302741	485.912245	806.203042	-268.283344	201.617718	606.394491	-404.524932	212.670260	602.467208	-330.027618	117.111303	607.949102	-366.496674	237.678011	479.970164	-428.426288	413.349869	769.892092	-395.406458	358.500265	701.883743	-392.130404	275.670023	670.270594	-398.984023	373.514622	681.797924	-362.748596	322.063867	447.132460	-360.848862	-64.038950	851.483972	-237.798451	21.218387	85.083614	-442.145151	21.196267	84.070592	-43.742883	
1002	5.0100	513.944363	1255.251815	-74.230093	501.488993	1204.941049	-420.329180	487.747627	1309.042276	-255.675033	463.143671	1178.384153	-241.238961	484.100022	1029.683086	51.478119	678.710594	908.750157	-31.636617	426.115606	947.091233	-518.723283	660.730379	902.210613	-432.369245	5.326441	1112.793911	-203.956834	126.804773	1130.727006	-365.595131	148.982017	1113.066183	-59.337708	179.991733	1084.807096	-341.851697	195.473793	1067.780841	-89.275961	35.193069	1140.693037	-144.523219	27.520002	1153.704020	-250.874137	128.415476	958.570495	-32.284743	125.001180	1026.615989	-402.440416	197.856238	839.454485	-39.768117	255.534644	773.677078	-50.055926	266.523516	686.483860	-64.211583	283.636615	787.306565	-70.721340	298.684908	599.765698	-97.798372	277.957086	578.203748	-193.543982	266.190364	503.578364	-64.215296	283.126183	416.274947	-77.645944	254.100971	333.593282	-77.524386	307.561300	418.050408	-108.990021	242.307027	229.331185	-76.316531	243.615517	240.417010	-152.315830	169.469620	196.377516	-110.827482	432.708294	174.594315	-132.263860	352.916440	160.200358	-62.000000	257.805406	974.533672	-399.583378	341.241191	966.036473	-384.657413	351.140298	993.905188	-359.519952	415.705670	914.404331	-386.029347	487.088592	841.935054	-367.292432	489.547524	814.853183	-268.312092	208.591416	609.745805	-404.553039	219.761376	606.587707	-330.627683	123.556346	609.423820	-366.740181	247.438094	484.410963	-428.860133	416.832029	778.437946	-395.320215	363.443014	709.437445	-392.424464	281.282064	675.992388	-399.066468	379.178469	689.131748	-363.688545	332.400009	453.533469	-360.911232	-64.054407	851.492423	-237.760116	21.217163	85.090938	-442.125088	21.222873	84.069749	-43.708596	
1003	5.0150	515.158116	1254.760707	-75.715480	499.177455	1205.591055	-423.027882	486.923800	1309.150792	-257.681582	463.077711	1178.349685	-243.315221	485.008176	1029.954116	51.440114	679.061295	908.758677	-31.621110	425.839780	946.057628	-519.345448	660.617406	902.197484	-432.213526	4.880838	1113.407003	-201.295220	125.416177	1132.023541	-364.212512	150.708898	1112.158396	-58.736002	178.909184	1085.789577	-341.403876	196.258147	1066.587862	-89.375391	35.812695	1140.855371	-142.052483	24.253430	1155.437522	-248.877757	129.215265	957.865494	-30.668933	124.223865	1030.261887	-402.113482	196.386875	839.403035	-39.345016	253.087714	772.722083	-49.835098	262.769073	685.401341	-63.973718	281.299201	785.989180	-70.669497	293.563927	598.587713	-98.223084	272.372416	577.223359	-194.274685	260.487667	502.678087	-64.416973	276.632090	415.312803	-77.969500	247.010658	332.833783	-77.646631	301.034543	416.895577	-109.365816	234.324515	229.093973	-76.223448	235.781183	239.645720	-152.343884	160.617313	197.262807	-110.613514	423.611016	169.330639	-132.140621	343.420032	157.003470	-61.902496	257.609005	980.911440	-398.571779	341.050860	973.581000	-383.641188	350.245335	1000.810283	-357.170630	416.304024	923.173426	-385.558537	490.766686	850.830977	-366.348097	492.550408	823.103483	-268.393223	215.520462	612.174145	-404.765948	225.692357	609.517538	-330.908443	129.732044	610.041204	-367.129817	257.130995	488.075035	-428.974823	419.714292	786.323175	-395.278477	368.231403	716.250174	-393.195720	286.741032	680.511963	-399.153056	384.518457	695.730317	-364.771049	342.834127	459.258369	-360.930557	-64.099844	851.493641	-237.787479	21.234371	85.067278	-442.089596	21.245231	84.094815	-43.683914	
